<?xml version="1.0" standalone="no"?>
<!DOCTYPE svg PUBLIC "-//W3C//DTD SVG 20010904//EN"
 "http://www.w3.org/TR/2001/REC-SVG-20010904/DTD/svg10.dtd">
<svg version="1.0" xmlns="http://www.w3.org/2000/svg"
 width="1076.000000pt" height="1076.000000pt" viewBox="0 0 1076.000000 1076.000000"
 preserveAspectRatio="xMidYMid meet">
<metadata>
Created by potrace 1.11, written by Peter Selinger 2001-2013
</metadata>
<g transform="translate(0.000000,1076.000000) scale(0.100000,-0.100000)"
fill="#000000" stroke="none">
<path d="M970 10317 l0 -443 30 -34 c16 -19 29 -40 30 -47 0 -6 4 -13 8 -15
24 -9 174 -328 155 -328 -3 0 -1 -6 5 -12 6 -7 13 -33 17 -58 4 -24 9 -48 11
-52 7 -10 6 -196 -1 -233 -14 -76 -17 -93 -31 -140 -31 -103 -99 -244 -170
-353 l-54 -83 0 -3938 0 -3939 30 -4 c16 -3 34 0 40 6 7 7 10 6 10 -1 0 -7 10
-9 27 -4 16 4 43 4 61 0 17 -4 32 -4 32 0 0 4 15 6 33 4 17 -2 47 -3 65 -3 29
1 39 1 75 0 6 0 37 0 67 0 30 0 79 0 108 -1 30 0 56 2 58 4 3 3 21 1 40 -3 18
-4 34 -5 34 -1 0 4 15 6 33 4 17 -2 47 -3 65 -3 17 0 40 0 50 0 9 0 28 0 42 1
24 1 35 0 63 -2 6 -1 24 1 39 4 15 3 30 2 33 -3 3 -5 19 -5 37 0 17 5 35 7 40
4 13 -8 78 -11 78 -4 0 4 15 5 33 3 17 -2 47 -3 65 -3 29 1 39 1 75 0 10 -1
50 -1 145 0 l22 0 0 -320 0 -320 2818 3 c1549 2 2831 7 2847 10 17 3 55 11 85
17 30 6 66 13 80 15 25 3 69 15 190 55 36 12 71 22 78 22 6 1 12 5 12 10 0 4
7 8 16 8 9 0 28 6 42 13 15 8 67 33 116 58 81 40 274 160 286 178 3 4 12 12
22 17 9 5 53 43 98 84 46 41 87 76 91 78 5 2 9 7 9 12 0 4 15 23 33 42 46 48
81 90 116 140 17 23 38 52 46 63 23 29 57 84 80 127 11 21 23 38 27 38 5 0 8
5 8 11 0 5 11 34 24 62 57 123 83 184 91 217 12 46 19 67 24 75 3 6 6 15 7 20
1 6 9 37 18 70 8 33 18 78 22 99 3 21 7 47 9 58 3 11 8 46 12 77 10 71 11
4487 1 4561 -10 73 -15 98 -24 112 -5 7 -3 8 5 3 10 -6 11 -3 3 11 -5 11 -12
35 -16 54 -11 60 -58 225 -67 235 -5 5 -9 15 -9 22 0 53 -201 422 -264 485 -7
7 -17 20 -22 30 -13 23 -131 154 -178 197 -74 69 -132 119 -170 146 -15 11
-47 34 -70 50 -120 89 -444 245 -507 245 -10 0 -20 4 -23 9 -3 5 -18 11 -33
14 -56 10 -89 17 -113 24 -14 4 -29 7 -35 8 -5 1 -42 7 -82 14 -40 7 -77 10
-83 6 -5 -3 -10 -3 -10 2 0 4 -41 9 -92 11 -50 1 -93 4 -94 5 -2 2 -4 247 -4
545 -1 399 -4 542 -13 542 -7 0 -8 3 -1 10 12 12 5 64 -27 220 -11 52 -22 105
-25 117 -9 43 -75 225 -103 283 -16 33 -27 60 -24 60 2 0 -4 12 -15 28 -10 15
-32 52 -48 82 -16 30 -31 57 -34 60 -4 3 -17 23 -30 45 -39 63 -172 225 -236
286 -112 108 -135 129 -167 151 -18 12 -34 25 -37 28 -12 15 -190 130 -190
123 0 -5 -7 1 -16 12 -8 11 -17 19 -19 17 -3 -1 -38 13 -78 32 -65 30 -115 53
-172 76 -32 14 -69 24 -78 22 -4 -1 -7 2 -7 6 0 5 -6 9 -12 9 -7 0 -38 7 -68
16 -30 9 -68 18 -85 21 -16 2 -30 5 -30 6 0 1 -13 4 -30 6 -16 2 -41 7 -55 10
-14 4 -38 9 -55 11 -16 3 -1208 7 -2647 9 l-2618 5 0 -444z"/>
</g>
</svg>
